<svg xmlns="http://www.w3.org/2000/svg" width="300" height="148" viewBox="0 0 300 148" version="1.1"><path d="M 109.463 45.417 C 107.626 48.220, 108.783 51.011, 112.635 53.072 C 117.627 55.744, 119.496 51.967, 116.011 46.250 C 113.653 42.383, 111.620 42.124, 109.463 45.417 M 39.458 59.068 C 39.055 59.719, 38.348 63.977, 37.887 68.528 C 37.426 73.079, 35.907 80.743, 34.511 85.558 C 32.159 93.675, 32.089 94.487, 33.550 96.717 C 34.417 98.040, 35.885 98.982, 36.813 98.811 C 37.741 98.640, 42.170 92.875, 46.656 86 C 51.142 79.125, 56.064 71.991, 57.594 70.147 C 60.212 66.993, 60.456 66.903, 61.715 68.625 C 63.438 70.981, 62.675 76.890, 59.240 87.779 C 56.841 95.385, 56.759 96.188, 58.237 97.665 C 59.121 98.550, 60.498 99.023, 61.296 98.716 C 62.095 98.410, 65.842 92.700, 69.624 86.027 C 73.406 79.354, 78.040 72.230, 79.922 70.197 L 83.343 66.500 84.032 69 C 84.922 72.228, 84.447 75.352, 81.259 87.273 C 78.566 97.342, 78.856 100.037, 82.482 98.645 C 84.751 97.775, 88.583 88.626, 90.435 79.660 C 92.422 70.041, 92.382 68.439, 90.027 63.250 C 88.386 59.636, 87.653 59, 85.126 59 C 81.424 59, 76.963 62.650, 72.423 69.390 L 69 74.473 69 69.813 C 69 64.121, 65.333 59, 61.256 59 C 57.759 59, 52.045 65.191, 46.916 74.535 C 44.663 78.641, 42.725 82, 42.609 82 C 42.493 82, 43.286 78.372, 44.371 73.938 C 46.540 65.070, 46.084 61.775, 42.345 59.306 C 40.721 58.233, 40.010 58.174, 39.458 59.068 M 105.987 61.025 C 105.391 62.138, 102.714 72.376, 100.038 83.775 C 94.816 106.020, 93.736 109.529, 91.275 112.248 C 88.999 114.764, 88.143 114.488, 83.869 109.858 C 80.653 106.375, 79.804 105.918, 78.523 106.981 C 75.988 109.085, 76.742 112.566, 80.434 115.808 C 84.636 119.497, 87.192 120.374, 91.427 119.580 C 94.679 118.970, 97.830 116.292, 99.791 112.472 C 101.569 109.010, 112 68.201, 112 64.707 C 112 59.369, 108.138 57.004, 105.987 61.025" stroke="none" fill="#3c94fc" fill-rule="evenodd"/><path d="M 245.517 36.972 C 245.187 37.507, 244.482 41.768, 243.951 46.442 C 242.908 55.616, 239.097 75.170, 236.125 86.593 C 234.498 92.850, 234.448 94.007, 235.704 96.404 C 236.560 98.039, 237.800 98.998, 238.814 98.811 C 239.741 98.640, 243.660 93.696, 247.523 87.825 C 256.832 73.673, 260.686 69, 263.047 69 C 265.905 69, 265.601 73.803, 262 85.500 C 258.528 96.780, 258.420 97.840, 260.658 98.699 C 264.881 100.319, 272.215 83.220, 272.403 71.318 C 272.490 65.776, 272.196 64.819, 269.563 62.068 C 267.923 60.355, 265.592 59, 264.287 59 C 261.234 59, 254.518 65.740, 249.551 73.786 C 247.431 77.221, 245.542 79.875, 245.352 79.685 C 245.162 79.495, 245.656 77.126, 246.450 74.420 C 248.770 66.512, 252 49.524, 252 45.228 C 252 39.771, 247.404 33.918, 245.517 36.972 M 140.132 43.750 C 138.217 45.566, 135.302 51.278, 131.547 60.574 C 126.179 73.864, 125.667 74.719, 122.366 75.912 C 117.928 77.517, 117.012 79.746, 119.897 81.922 L 122.105 83.588 120.053 88.377 C 118.924 91.011, 118 93.734, 118 94.428 C 118 95.910, 121.188 99, 122.717 99 C 123.300 99, 125.535 94.838, 127.683 89.750 L 131.590 80.500 138.391 78.679 C 142.132 77.678, 145.442 77.109, 145.748 77.415 C 146.054 77.720, 146.644 82.082, 147.061 87.108 C 147.590 93.505, 148.313 96.734, 149.470 97.873 C 150.997 99.377, 151.231 99.353, 152.561 97.559 C 153.600 96.157, 154 92.675, 154 85.028 L 154 74.438 157 73.306 C 161.251 71.702, 160.975 69, 156.561 69 C 153.218 69, 153.104 68.868, 152.466 64.250 C 150.325 48.765, 147.662 41, 144.493 41 C 143.689 41, 141.727 42.237, 140.132 43.750 M 215.367 53.720 L 214.500 60.440 209.690 61.795 C 207.044 62.541, 204.631 63.797, 204.328 64.588 C 203.488 66.776, 205.905 69, 209.122 69 C 210.705 69, 212 69.239, 212 69.532 C 212 69.824, 210.650 74.608, 209 80.162 C 207.350 85.716, 206 91.123, 206 92.178 C 206 95.226, 210.801 99, 214.678 99 C 220.884 99, 229 94.183, 229 90.500 C 229 88.624, 226.651 88.615, 221.500 90.471 C 216.500 92.272, 214.009 92.365, 213.970 90.750 C 213.953 90.063, 215.415 84.421, 217.220 78.214 C 220.137 68.179, 220.777 66.869, 223 66.386 C 229.903 64.886, 233.500 63.384, 233.500 62 C 233.500 60.884, 232.092 60.425, 227.996 60.207 L 222.492 59.915 222.851 55.402 C 223.240 50.509, 221.198 47, 217.962 47 C 216.582 47, 216.059 48.354, 215.367 53.720 M 138.593 61.593 C 136.563 66.896, 135.036 71.369, 135.201 71.532 C 135.365 71.695, 137.761 71.305, 140.524 70.664 L 145.548 69.500 144.489 61.298 C 143.906 56.787, 143.171 52.838, 142.856 52.523 C 142.541 52.208, 140.623 56.289, 138.593 61.593 M 173.136 62.279 C 169.972 67.400, 165 83.312, 165 88.321 C 165 92.041, 165.548 93.394, 168.077 95.923 C 172.800 100.647, 178.814 99.575, 184.323 93.028 L 186.884 89.984 187.192 94.242 C 187.443 97.711, 187.866 98.500, 189.475 98.500 C 191.145 98.500, 192.175 96.184, 196.149 83.500 C 201.380 66.801, 201.870 63.097, 199.171 60.655 C 196.267 58.027, 195.274 58.652, 193.457 64.250 C 188.210 80.421, 175.132 97, 172.675 90.595 C 171.853 88.455, 174.297 79.326, 177.831 71.332 C 181.318 63.446, 181.578 61.978, 179.800 60.200 C 177.715 58.115, 175.231 58.890, 173.136 62.279" stroke="none" fill="#fcfcfc" fill-rule="evenodd"/></svg>